<mxfile host="app.diagrams.net" modified="2021-10-21T05:55:21.415Z" agent="5.0 (Windows)" etag="V8XU2jxVLaEVQURh015L" version="14.8.5" type="github">
  <diagram id="_ABq8QCWJCqKpcDOjlVK" name="Page-1">
    <mxGraphModel dx="1353" dy="767" grid="1" gridSize="10" guides="1" tooltips="1" connect="1" arrows="1" fold="1" page="1" pageScale="1" pageWidth="827" pageHeight="1169" math="0" shadow="0">
      <root>
        <mxCell id="0" />
        <mxCell id="1" parent="0" />
        <mxCell id="Njt9bCh2NybzUek4BjdQ-8" value="" style="rounded=0;whiteSpace=wrap;html=1;dashed=1;" vertex="1" parent="1">
          <mxGeometry x="60" y="210" width="180" height="210" as="geometry" />
        </mxCell>
        <mxCell id="Njt9bCh2NybzUek4BjdQ-75" style="edgeStyle=orthogonalEdgeStyle;rounded=0;orthogonalLoop=1;jettySize=auto;html=1;exitX=0;exitY=0.5;exitDx=0;exitDy=0;" edge="1" parent="1" source="Njt9bCh2NybzUek4BjdQ-9">
          <mxGeometry relative="1" as="geometry">
            <mxPoint x="260" y="315.0689655172414" as="targetPoint" />
          </mxGeometry>
        </mxCell>
        <mxCell id="Njt9bCh2NybzUek4BjdQ-9" value="" style="rounded=0;whiteSpace=wrap;html=1;dashed=1;" vertex="1" parent="1">
          <mxGeometry x="250" y="210" width="104" height="210" as="geometry" />
        </mxCell>
        <mxCell id="Njt9bCh2NybzUek4BjdQ-10" value="" style="rounded=0;whiteSpace=wrap;html=1;dashed=1;" vertex="1" parent="1">
          <mxGeometry x="360" y="210" width="87" height="210" as="geometry" />
        </mxCell>
        <mxCell id="Njt9bCh2NybzUek4BjdQ-11" value="" style="rounded=0;whiteSpace=wrap;html=1;dashed=1;" vertex="1" parent="1">
          <mxGeometry x="60" y="140" width="390" height="60" as="geometry" />
        </mxCell>
        <mxCell id="Njt9bCh2NybzUek4BjdQ-12" value="" style="rounded=0;whiteSpace=wrap;html=1;dashed=1;" vertex="1" parent="1">
          <mxGeometry x="60" y="430" width="580" height="50" as="geometry" />
        </mxCell>
        <mxCell id="Njt9bCh2NybzUek4BjdQ-13" value="" style="rounded=0;whiteSpace=wrap;html=1;dashed=1;" vertex="1" parent="1">
          <mxGeometry x="460" y="140" width="80" height="140" as="geometry" />
        </mxCell>
        <mxCell id="Njt9bCh2NybzUek4BjdQ-14" value="" style="rounded=0;whiteSpace=wrap;html=1;dashed=1;" vertex="1" parent="1">
          <mxGeometry x="550" y="140" width="90" height="140" as="geometry" />
        </mxCell>
        <mxCell id="Njt9bCh2NybzUek4BjdQ-15" value="" style="rounded=0;whiteSpace=wrap;html=1;dashed=1;" vertex="1" parent="1">
          <mxGeometry x="460" y="290" width="80" height="130" as="geometry" />
        </mxCell>
        <mxCell id="Njt9bCh2NybzUek4BjdQ-16" value="" style="rounded=0;whiteSpace=wrap;html=1;dashed=1;" vertex="1" parent="1">
          <mxGeometry x="550" y="290" width="90" height="130" as="geometry" />
        </mxCell>
        <mxCell id="Njt9bCh2NybzUek4BjdQ-18" value="render" style="rounded=0;whiteSpace=wrap;html=1;" vertex="1" parent="1">
          <mxGeometry x="70" y="155" width="60" height="30" as="geometry" />
        </mxCell>
        <mxCell id="Njt9bCh2NybzUek4BjdQ-20" value="序列化" style="rounded=0;whiteSpace=wrap;html=1;" vertex="1" parent="1">
          <mxGeometry x="140" y="155" width="60" height="30" as="geometry" />
        </mxCell>
        <mxCell id="Njt9bCh2NybzUek4BjdQ-21" value="增删改查" style="rounded=0;whiteSpace=wrap;html=1;" vertex="1" parent="1">
          <mxGeometry x="210" y="155" width="60" height="30" as="geometry" />
        </mxCell>
        <mxCell id="Njt9bCh2NybzUek4BjdQ-22" value="节点、线注册" style="rounded=0;whiteSpace=wrap;html=1;" vertex="1" parent="1">
          <mxGeometry x="284" y="155" width="70" height="30" as="geometry" />
        </mxCell>
        <mxCell id="Njt9bCh2NybzUek4BjdQ-23" value="插件系统" style="rounded=0;whiteSpace=wrap;html=1;" vertex="1" parent="1">
          <mxGeometry x="365" y="155" width="65" height="30" as="geometry" />
        </mxCell>
        <mxCell id="Njt9bCh2NybzUek4BjdQ-24" value="组件" style="text;html=1;strokeColor=none;fillColor=none;align=center;verticalAlign=middle;whiteSpace=wrap;rounded=0;" vertex="1" parent="1">
          <mxGeometry x="460" y="140" width="40" height="20" as="geometry" />
        </mxCell>
        <mxCell id="Njt9bCh2NybzUek4BjdQ-25" value="节点" style="text;html=1;strokeColor=none;fillColor=none;align=center;verticalAlign=middle;whiteSpace=wrap;rounded=0;" vertex="1" parent="1">
          <mxGeometry x="550" y="140" width="40" height="20" as="geometry" />
        </mxCell>
        <mxCell id="Njt9bCh2NybzUek4BjdQ-26" value="API" style="text;html=1;strokeColor=none;fillColor=none;align=center;verticalAlign=middle;whiteSpace=wrap;rounded=0;" vertex="1" parent="1">
          <mxGeometry x="460" y="290" width="40" height="20" as="geometry" />
        </mxCell>
        <mxCell id="Njt9bCh2NybzUek4BjdQ-27" value="Adapter" style="text;html=1;strokeColor=none;fillColor=none;align=center;verticalAlign=middle;whiteSpace=wrap;rounded=0;" vertex="1" parent="1">
          <mxGeometry x="560" y="290" width="46" height="20" as="geometry" />
        </mxCell>
        <mxCell id="Njt9bCh2NybzUek4BjdQ-28" value="Node" style="rounded=0;whiteSpace=wrap;html=1;" vertex="1" parent="1">
          <mxGeometry x="70" y="230" width="50" height="30" as="geometry" />
        </mxCell>
        <mxCell id="Njt9bCh2NybzUek4BjdQ-29" value="edge" style="rounded=0;whiteSpace=wrap;html=1;" vertex="1" parent="1">
          <mxGeometry x="125" y="230" width="50" height="30" as="geometry" />
        </mxCell>
        <mxCell id="Njt9bCh2NybzUek4BjdQ-30" value="view" style="text;html=1;strokeColor=none;fillColor=none;align=center;verticalAlign=middle;whiteSpace=wrap;rounded=0;" vertex="1" parent="1">
          <mxGeometry x="60" y="210" width="40" height="20" as="geometry" />
        </mxCell>
        <mxCell id="Njt9bCh2NybzUek4BjdQ-31" value="Model" style="text;html=1;strokeColor=none;fillColor=none;align=center;verticalAlign=middle;whiteSpace=wrap;rounded=0;" vertex="1" parent="1">
          <mxGeometry x="255" y="210" width="40" height="20" as="geometry" />
        </mxCell>
        <mxCell id="Njt9bCh2NybzUek4BjdQ-32" value="工具中心" style="text;html=1;strokeColor=none;fillColor=none;align=center;verticalAlign=middle;whiteSpace=wrap;rounded=0;" vertex="1" parent="1">
          <mxGeometry x="365" y="210" width="50" height="20" as="geometry" />
        </mxCell>
        <mxCell id="Njt9bCh2NybzUek4BjdQ-35" value="Svg" style="rounded=0;whiteSpace=wrap;html=1;" vertex="1" parent="1">
          <mxGeometry x="70" y="440" width="90" height="30" as="geometry" />
        </mxCell>
        <mxCell id="Njt9bCh2NybzUek4BjdQ-36" value="Mobx" style="rounded=0;whiteSpace=wrap;html=1;" vertex="1" parent="1">
          <mxGeometry x="160" y="440" width="95" height="30" as="geometry" />
        </mxCell>
        <mxCell id="Njt9bCh2NybzUek4BjdQ-37" value="Preact" style="rounded=0;whiteSpace=wrap;html=1;" vertex="1" parent="1">
          <mxGeometry x="255" y="440" width="105" height="30" as="geometry" />
        </mxCell>
        <mxCell id="Njt9bCh2NybzUek4BjdQ-38" value="TS" style="rounded=0;whiteSpace=wrap;html=1;" vertex="1" parent="1">
          <mxGeometry x="354" y="440" width="96" height="30" as="geometry" />
        </mxCell>
        <mxCell id="Njt9bCh2NybzUek4BjdQ-39" value="WebSocket" style="rounded=0;whiteSpace=wrap;html=1;" vertex="1" parent="1">
          <mxGeometry x="460" y="440" width="170" height="30" as="geometry" />
        </mxCell>
        <mxCell id="Njt9bCh2NybzUek4BjdQ-40" value="底层依赖" style="text;html=1;strokeColor=none;fillColor=none;align=center;verticalAlign=middle;whiteSpace=wrap;rounded=0;" vertex="1" parent="1">
          <mxGeometry x="5" y="440" width="50" height="20" as="geometry" />
        </mxCell>
        <mxCell id="Njt9bCh2NybzUek4BjdQ-41" value="核心模块" style="text;html=1;strokeColor=none;fillColor=none;align=center;verticalAlign=middle;whiteSpace=wrap;rounded=0;" vertex="1" parent="1">
          <mxGeometry y="280" width="50" height="20" as="geometry" />
        </mxCell>
        <mxCell id="Njt9bCh2NybzUek4BjdQ-42" value="扩展" style="text;html=1;strokeColor=none;fillColor=none;align=center;verticalAlign=middle;whiteSpace=wrap;rounded=0;" vertex="1" parent="1">
          <mxGeometry x="10" y="155" width="40" height="20" as="geometry" />
        </mxCell>
        <mxCell id="Njt9bCh2NybzUek4BjdQ-43" value="PolyLine" style="rounded=0;whiteSpace=wrap;html=1;" vertex="1" parent="1">
          <mxGeometry x="70" y="310" width="50" height="30" as="geometry" />
        </mxCell>
        <mxCell id="Njt9bCh2NybzUek4BjdQ-44" value="Arrow" style="rounded=0;whiteSpace=wrap;html=1;" vertex="1" parent="1">
          <mxGeometry x="70" y="270" width="50" height="30" as="geometry" />
        </mxCell>
        <mxCell id="Njt9bCh2NybzUek4BjdQ-45" value="Rect" style="rounded=0;whiteSpace=wrap;html=1;" vertex="1" parent="1">
          <mxGeometry x="180" y="230" width="50" height="30" as="geometry" />
        </mxCell>
        <mxCell id="Njt9bCh2NybzUek4BjdQ-47" value="Text" style="rounded=0;whiteSpace=wrap;html=1;" vertex="1" parent="1">
          <mxGeometry x="125" y="310" width="50" height="30" as="geometry" />
        </mxCell>
        <mxCell id="Njt9bCh2NybzUek4BjdQ-48" value="EventCenter" style="rounded=0;whiteSpace=wrap;html=1;" vertex="1" parent="1">
          <mxGeometry x="365" y="230" width="70" height="30" as="geometry" />
        </mxCell>
        <mxCell id="Njt9bCh2NybzUek4BjdQ-49" value="GraphModel" style="rounded=0;whiteSpace=wrap;html=1;" vertex="1" parent="1">
          <mxGeometry x="257" y="230" width="90" height="30" as="geometry" />
        </mxCell>
        <mxCell id="Njt9bCh2NybzUek4BjdQ-50" value="History" style="rounded=0;whiteSpace=wrap;html=1;" vertex="1" parent="1">
          <mxGeometry x="365" y="270" width="70" height="30" as="geometry" />
        </mxCell>
        <mxCell id="Njt9bCh2NybzUek4BjdQ-51" value="Algorithm" style="rounded=0;whiteSpace=wrap;html=1;" vertex="1" parent="1">
          <mxGeometry x="365" y="310" width="70" height="30" as="geometry" />
        </mxCell>
        <mxCell id="Njt9bCh2NybzUek4BjdQ-52" value="坐标系" style="rounded=0;whiteSpace=wrap;html=1;" vertex="1" parent="1">
          <mxGeometry x="365" y="350" width="70" height="30" as="geometry" />
        </mxCell>
        <mxCell id="Njt9bCh2NybzUek4BjdQ-53" value="Behavior" style="rounded=0;whiteSpace=wrap;html=1;" vertex="1" parent="1">
          <mxGeometry x="365" y="390" width="70" height="30" as="geometry" />
        </mxCell>
        <mxCell id="Njt9bCh2NybzUek4BjdQ-54" value="Menu" style="rounded=0;whiteSpace=wrap;html=1;" vertex="1" parent="1">
          <mxGeometry x="465.5" y="160" width="67.5" height="30" as="geometry" />
        </mxCell>
        <mxCell id="Njt9bCh2NybzUek4BjdQ-55" value="Control" style="rounded=0;whiteSpace=wrap;html=1;" vertex="1" parent="1">
          <mxGeometry x="465.5" y="200" width="67.5" height="30" as="geometry" />
        </mxCell>
        <mxCell id="Njt9bCh2NybzUek4BjdQ-56" value="Panel" style="rounded=0;whiteSpace=wrap;html=1;" vertex="1" parent="1">
          <mxGeometry x="465.5" y="240" width="67.5" height="30" as="geometry" />
        </mxCell>
        <mxCell id="Njt9bCh2NybzUek4BjdQ-57" value="BPMN" style="rounded=0;whiteSpace=wrap;html=1;" vertex="1" parent="1">
          <mxGeometry x="560" y="160" width="70" height="30" as="geometry" />
        </mxCell>
        <mxCell id="Njt9bCh2NybzUek4BjdQ-58" value="导出Json" style="rounded=0;whiteSpace=wrap;html=1;" vertex="1" parent="1">
          <mxGeometry x="467" y="310" width="66" height="30" as="geometry" />
        </mxCell>
        <mxCell id="Njt9bCh2NybzUek4BjdQ-59" value="XML" style="rounded=0;whiteSpace=wrap;html=1;" vertex="1" parent="1">
          <mxGeometry x="560" y="310" width="70" height="30" as="geometry" />
        </mxCell>
        <mxCell id="Njt9bCh2NybzUek4BjdQ-63" value="背景图" style="rounded=0;whiteSpace=wrap;html=1;" vertex="1" parent="1">
          <mxGeometry x="70" y="350" width="50" height="30" as="geometry" />
        </mxCell>
        <mxCell id="Njt9bCh2NybzUek4BjdQ-64" value="Grid层" style="rounded=0;whiteSpace=wrap;html=1;" vertex="1" parent="1">
          <mxGeometry x="125" y="350" width="50" height="30" as="geometry" />
        </mxCell>
        <mxCell id="Njt9bCh2NybzUek4BjdQ-66" value="对齐线" style="rounded=0;whiteSpace=wrap;html=1;" vertex="1" parent="1">
          <mxGeometry x="125" y="270" width="50" height="30" as="geometry" />
        </mxCell>
        <mxCell id="Njt9bCh2NybzUek4BjdQ-67" value="SnapLineModel" style="rounded=0;whiteSpace=wrap;html=1;" vertex="1" parent="1">
          <mxGeometry x="257" y="270" width="90" height="30" as="geometry" />
        </mxCell>
        <mxCell id="Njt9bCh2NybzUek4BjdQ-68" value="TransformModel" style="rounded=0;whiteSpace=wrap;html=1;" vertex="1" parent="1">
          <mxGeometry x="257" y="310" width="90" height="30" as="geometry" />
        </mxCell>
        <mxCell id="Njt9bCh2NybzUek4BjdQ-69" value="NodeModel" style="rounded=0;whiteSpace=wrap;html=1;" vertex="1" parent="1">
          <mxGeometry x="257" y="350" width="93" height="30" as="geometry" />
        </mxCell>
        <mxCell id="Njt9bCh2NybzUek4BjdQ-70" value="Anchor" style="rounded=0;whiteSpace=wrap;html=1;" vertex="1" parent="1">
          <mxGeometry x="180" y="270" width="50" height="30" as="geometry" />
        </mxCell>
        <mxCell id="Njt9bCh2NybzUek4BjdQ-71" value="outLine" style="rounded=0;whiteSpace=wrap;html=1;" vertex="1" parent="1">
          <mxGeometry x="180" y="310" width="50" height="30" as="geometry" />
        </mxCell>
        <mxCell id="Njt9bCh2NybzUek4BjdQ-73" value="EdgeModel" style="rounded=0;whiteSpace=wrap;html=1;" vertex="1" parent="1">
          <mxGeometry x="257" y="390" width="93" height="30" as="geometry" />
        </mxCell>
        <mxCell id="Njt9bCh2NybzUek4BjdQ-76" value="设备状态" style="rounded=0;whiteSpace=wrap;html=1;" vertex="1" parent="1">
          <mxGeometry x="467" y="350" width="63" height="30" as="geometry" />
        </mxCell>
      </root>
    </mxGraphModel>
  </diagram>
</mxfile>
